<svg width="512" height="512" viewBox="0 0 512 512" fill="none" xmlns="http://www.w3.org/2000/svg">
  <defs>
    <linearGradient id="light_bg_gradient" x1="0%" y1="0%" x2="100%" y2="100%">
      <stop offset="0%" stop-color="#CAC7E4"/>
      <stop offset="50%" stop-color="#E6E6E6"/>
      <stop offset="100%" stop-color="#C1D8E4"/>
    </linearGradient>

    <linearGradient id="dark_d_gradient" x1="0%" y1="0%" x2="100%" y2="100%">
      <stop offset="0%" stop-color="#594AE2"/>
      <stop offset="50%" stop-color="#1b0e33"/>
      <stop offset="100%" stop-color="#00d2ff"/>
    </linearGradient>
    
    <path id="star-nose" d="M 0 -14 Q 0 0, 10 0 Q 0 0, 0 14 Q 0 0, -10 0 Q 0 0, 0 -14 Z" />
    <path id="rocket-body" d="M -6 2 L -8 12 L 0 8 L 8 12 L 6 2 Z" />
  </defs>

  <rect width="512" height="512" fill="url(#light_bg_gradient)"/>

  <g transform="translate(256 256) scale(1.3) translate(-271 -256)">
      
      <g stroke="#F4F4F8" stroke-width="16" stroke-linejoin="round">
         <path d="M130 135 Q 130 115, 150 115 H 300 C 430 115, 430 397, 300 397 H 150 Q 130 397, 130 377 V 135 Z" fill="none"/>
      </g>

      <g>
         <path d="M130 135 Q 130 115, 150 115 H 300 C 430 115, 430 397, 300 397 H 150 Q 130 397, 130 377 V 135 Z" 
               fill="url(#dark_d_gradient)"/>
      </g>

      <g transform="translate(280, 220) rotate(-30) scale(3.8)" fill="white">
        <use href="#star-nose" y="-10"/>
        <use href="#rocket-body" y="10"/>
      </g>
  </g>
</svg>