<svg width="512" height="512" viewBox="0 0 512 512" fill="none" xmlns="http://www.w3.org/2000/svg">
  <defs>
    <linearGradient id="neon_gradient" x1="130" y1="115" x2="430" y2="397" gradientUnits="userSpaceOnUse">
      <stop offset="0%" stop-color="#7A00FF"/>
      <stop offset="100%" stop-color="#00F0FF"/>
    </linearGradient>
    
    <path id="s" d="M 0 -8 Q 0 0, 8 0 Q 0 0, 0 8 Q 0 0, -8 0 Q 0 0, 0 -8 Z" fill="white"/>
  </defs>

  <rect width="512" height="512" rx="110" fill="#101222"/>

  <g transform="translate(256 256) scale(1.3) translate(-271 -256)">
      
      <g>
         <path d="M130 135 Q 130 115, 150 115 H 300 C 430 115, 430 397, 300 397 H 150 Q 130 397, 130 377 V 135 Z" 
               fill="url(#neon_gradient)"/>
      </g>

      <g transform="translate(190, 340) rotate(45) scale(2.2)">
        <path d="M0 -14 C 0 -14, -6 4, -8 12 L 0 8 L 8 12 C 6 4, 0 -14, 0 -14 Z" fill="white"/>
      </g>

      <g transform="translate(375, 155) scale(1.2)">
          <g stroke="none">
            <use href="#s" x="-10" y="0" transform="scale(2.5)"/>
            <use href="#s" x="-15" y="45" transform="scale(1.8)"/>
            <use href="#s" x="-35" y="85" transform="scale(2.2)"/>
          </g>
      </g>
  </g>
</svg>