<?xml version="1.0" encoding="UTF-8" standalone="no"?>
<!-- Created with Inkscape (http://www.inkscape.org/) -->

<svg
   width="1024"
   height="1024"
   viewBox="0 0 270.93333 270.93333"
   version="1.1"
   id="svg1"
   xml:space="preserve"
   inkscape:version="1.4.3 (0d15f75, 2025-12-25)"
   sodipodi:docname="Daily_Small.svg"
   inkscape:export-filename="Daily.png"
   inkscape:export-xdpi="96"
   inkscape:export-ydpi="96"
   xmlns:inkscape="http://www.inkscape.org/namespaces/inkscape"
   xmlns:sodipodi="http://sodipodi.sourceforge.net/DTD/sodipodi-0.dtd"
   xmlns:xlink="http://www.w3.org/1999/xlink"
   xmlns="http://www.w3.org/2000/svg"
   xmlns:svg="http://www.w3.org/2000/svg"><sodipodi:namedview
     id="namedview1"
     pagecolor="#ffffff"
     bordercolor="#000000"
     borderopacity="0.25"
     inkscape:showpageshadow="2"
     inkscape:pageopacity="0.0"
     inkscape:pagecheckerboard="0"
     inkscape:deskcolor="#d1d1d1"
     inkscape:document-units="mm"
     inkscape:zoom="0.61112514"
     inkscape:cx="464.7166"
     inkscape:cy="495.8068"
     inkscape:window-width="1600"
     inkscape:window-height="930"
     inkscape:window-x="-6"
     inkscape:window-y="1227"
     inkscape:window-maximized="1"
     inkscape:current-layer="layer1"
     inkscape:export-bgcolor="#ffffff00" /><defs
     id="defs1"><linearGradient
       id="linearGradient78"><stop
         style="stop-color:#e70039;stop-opacity:1;"
         offset="0"
         id="stop77" /><stop
         style="stop-color:#320037;stop-opacity:1;"
         offset="1"
         id="stop78" /></linearGradient><linearGradient
       id="linearGradient56"><stop
         style="stop-color:#5216f0;stop-opacity:1;"
         offset="0"
         id="stop68" /><stop
         style="stop-color:#161650;stop-opacity:0;"
         offset="1"
         id="stop69" /></linearGradient><linearGradient
       id="swatch56"
       inkscape:swatch="solid"><stop
         style="stop-color:#161650;stop-opacity:1;"
         offset="0"
         id="stop56" /></linearGradient><linearGradient
       id="swatch26"
       inkscape:swatch="solid"><stop
         style="stop-color:#000000;stop-opacity:1;"
         offset="0"
         id="stop26" /></linearGradient><filter
       style="color-interpolation-filters:sRGB;"
       inkscape:label="Drop Shadow"
       id="filter38"
       x="-0.01791719"
       y="-0.018142651"
       width="1.0507405"
       height="1.051379"><feFlood
         flood-opacity="1"
         flood-color="rgb(0,0,0)"
         result="flood"
         id="feFlood38" /><feComposite
         in="flood"
         in2="SourceGraphic"
         operator="in"
         result="composite"
         id="feComposite38" /><feGaussianBlur
         stdDeviation="0.01"
         id="feGaussianBlur38"
         result="fbSourceGraphic" /><feColorMatrix
         result="fbSourceGraphicAlpha"
         in="fbSourceGraphic"
         values="0 0 0 -1 0 0 0 0 -1 0 0 0 0 -1 0 0 0 0 1 0"
         id="feColorMatrix44" /><feFlood
         id="feFlood44"
         result="flood"
         in="fbSourceGraphic"
         flood-opacity="0.498039"
         flood-color="rgb(0,0,0)" /><feGaussianBlur
         id="feGaussianBlur44"
         result="blur"
         in="fbSourceGraphic"
         stdDeviation="3.000000" /><feOffset
         id="feOffset44"
         result="offset"
         in="blur"
         dx="6.000000"
         dy="6.000000" /><feComposite
         id="feComposite44"
         result="comp1"
         operator="out"
         in="flood"
         in2="offset" /><feComposite
         id="feComposite45"
         result="fbSourceGraphic"
         operator="atop"
         in="comp1"
         in2="fbSourceGraphic" /><feColorMatrix
         result="fbSourceGraphicAlpha"
         in="fbSourceGraphic"
         values="0 0 0 -1 0 0 0 0 -1 0 0 0 0 -1 0 0 0 0 1 0"
         id="feColorMatrix45" /><feFlood
         id="feFlood45"
         result="flood"
         in="fbSourceGraphic"
         flood-opacity="0.498039"
         flood-color="rgb(0,0,0)" /><feGaussianBlur
         id="feGaussianBlur45"
         result="blur"
         in="fbSourceGraphic"
         stdDeviation="3.000000" /><feOffset
         id="feOffset45"
         result="offset"
         in="blur"
         dx="6.000000"
         dy="6.000000" /><feComposite
         id="feComposite46"
         result="comp1"
         operator="out"
         in="flood"
         in2="offset" /><feComposite
         id="feComposite47"
         result="comp2"
         operator="atop"
         in="comp1"
         in2="fbSourceGraphic" /></filter><filter
       style="color-interpolation-filters:sRGB;"
       inkscape:label="Drop Shadow"
       id="filter49"
       x="-0.0099421658"
       y="-0.010049284"
       width="1.0272869"
       height="1.0276347"><feFlood
         result="flood"
         in="SourceGraphic"
         flood-opacity="0.498039"
         flood-color="rgb(0,0,0)"
         id="feFlood48" /><feGaussianBlur
         result="blur"
         in="SourceGraphic"
         stdDeviation="3.000000"
         id="feGaussianBlur48" /><feOffset
         result="offset"
         in="blur"
         dx="6.000000"
         dy="6.000000"
         id="feOffset48" /><feComposite
         result="comp1"
         operator="in"
         in="flood"
         in2="offset"
         id="feComposite48" /><feComposite
         result="comp2"
         operator="over"
         in="SourceGraphic"
         in2="comp1"
         id="feComposite49" /></filter><radialGradient
       inkscape:collect="always"
       xlink:href="#linearGradient56"
       id="radialGradient58"
       cx="136.23796"
       cy="135.39671"
       fx="136.23796"
       fy="135.39671"
       r="111.90352"
       gradientTransform="matrix(1,0,0,0.988173,0,1.6013364)"
       gradientUnits="userSpaceOnUse" /><radialGradient
       inkscape:collect="always"
       xlink:href="#linearGradient78"
       id="radialGradient68"
       cx="134.94522"
       cy="135.99651"
       fx="134.94522"
       fy="135.99651"
       r="107.69172"
       gradientTransform="matrix(1,0,0,1.0048491,0,-0.65945526)"
       gradientUnits="userSpaceOnUse" /><filter
       inkscape:menu="Shadows and Glows"
       inkscape:menu-tooltip="Cut out, add inner shadow and colorize some parts of an image"
       style="color-interpolation-filters:sRGB;"
       inkscape:label="Emergence"
       id="filter83"
       x="-0.034736014"
       y="-0.034568067"
       width="1.0834506"
       height="1.0830377"><feColorMatrix
         values="0 0 0 0 0 0 0 0 0 0 0 0 0 0 0 0.21 0.72 0.07 0 0 "
         result="result1"
         id="feColorMatrix78" /><feColorMatrix
         values="1 0 0 0 0 0 1 0 0 0 0 0 1 0 0 0 0 0 2 0 "
         result="result9"
         id="feColorMatrix79" /><feComposite
         in2="result9"
         in="SourceGraphic"
         operator="in"
         result="result4"
         id="feComposite79" /><feFlood
         result="result2"
         flood-color="rgb(0,0,0)"
         id="feFlood79" /><feComposite
         in2="result9"
         operator="in"
         result="result10"
         id="feComposite80" /><feComposite
         in2="result4"
         operator="atop"
         id="feComposite81" /><feGaussianBlur
         stdDeviation="3"
         result="result8"
         id="feGaussianBlur81" /><feOffset
         dx="3"
         dy="3"
         result="result3"
         in="result8"
         id="feOffset81" /><feFlood
         flood-opacity="1"
         flood-color="rgb(219,173,62)"
         result="result5"
         id="feFlood81" /><feMerge
         result="result6"
         id="feMerge83"><feMergeNode
           in="result5"
           id="feMergeNode81" /><feMergeNode
           in="result3"
           id="feMergeNode82" /><feMergeNode
           in="result4"
           id="feMergeNode83" /></feMerge><feComposite
         in2="SourceGraphic"
         operator="in"
         result="result7"
         id="feComposite83" /></filter></defs><g
     inkscape:label="Layer 1"
     inkscape:groupmode="layer"
     id="layer1"
     style="fill:url(#radialGradient58);fill-opacity:1;fill-rule:evenodd"><path
       style="display:inline;fill:url(#radialGradient68);fill-rule:evenodd;stroke:#000c00;stroke-width:0.52916667;stroke-dasharray:none;stroke-opacity:1;fill-opacity:1;filter:url(#filter83)"
       d="m 178.60809,239.43197 c -8.30935,-6.32592 -7.68331,-5.4992 -6.94078,-9.16557 0.34226,-1.69016 0.70324,-3.15501 0.8021,-3.25518 0.16437,-0.1666 4.9329,3.33241 14.91594,10.94478 l 3.8081,2.90384 -2.64179,1.53945 c -1.45301,0.8467 -2.94852,1.54265 -3.32348,1.54654 -0.37482,0.003 -3.35392,-2.02733 -6.62009,-4.51386 z m 16.93043,-0.23999 c -2.20149,-0.80479 -2.54106,-1.03322 -10.39025,-6.9909 -9.71984,-7.37754 -11.39043,-8.90058 -12.62863,-11.51299 -2.2832,-4.81734 -1.23321,-10.2799 3.11826,-16.22158 1.85853,-2.5379 2.32701,-3.48345 1.94872,-3.93311 -1.25171,-1.48743 -9.12635,-7.00335 -9.45722,-6.62442 -0.20158,0.2308 -2.42008,3.11526 -4.93007,6.41 -2.50994,3.29467 -5.84992,7.21018 -7.4222,8.70109 -3.2615,3.09288 -8.1428,5.74129 -12.54874,6.80829 -4.20721,1.01891 -10.88504,0.98072 -15.1807,-0.0869 -4.74039,-1.1781 -7.66031,-2.8008 -14.41294,-8.00961 -3.14088,-2.42266 -12.49397,-9.54827 -20.784835,-15.8347 -8.290861,-6.2864 -16.267775,-12.438 -17.726471,-13.6702 -7.406377,-6.25662 -11.348727,-16.43732 -10.074941,-26.01754 0.980143,-7.37151 2.815538,-11.10478 10.221669,-20.79081 2.532203,-3.31152 4.608875,-6.16581 4.614837,-6.34271 0.01002,-0.29453 -3.705238,-3.31924 -7.830779,-6.37542 l -1.673939,-1.2401 -1.360097,2.00605 c -5.216221,7.69304 -12.116593,10.55791 -18.260673,7.58167 -1.341807,-0.65001 -5.544918,-3.56969 -9.34024,-6.48807 -3.795327,-2.91826 -7.831948,-5.94404 -8.970279,-6.72371 -1.529486,-1.04782 -2.459735,-2.19668 -3.564057,-4.40184 -1.372985,-2.74182 -1.478871,-3.25424 -1.303656,-6.30968 0.260058,-4.534983 1.440993,-6.632423 10.355711,-18.392783 4.020843,-5.30434 10.958603,-14.491808 15.417229,-20.416623 4.458633,-5.9248 8.233985,-10.784255 8.389675,-10.798785 0.356038,-0.03329 8.562857,6.099653 24.287348,18.149666 l 12.241047,9.380567 -1.519113,1.900455 c -5.345018,6.686755 -12.981924,17.329193 -12.646911,17.624143 1.770454,1.55874 8.850432,6.78652 9.187853,6.78422 0.234524,-0.002 2.930374,-3.34298 5.990786,-7.42537 8.776406,-11.707132 13.346266,-17.473664 15.047536,-18.988059 4.19941,-3.738048 7.93075,-4.948645 17.48724,-5.673562 8.37311,-0.63516 10.81816,-1.141951 14.7971,-3.067111 4.29173,-2.076488 7.05084,-4.690875 12.49432,-11.838729 18.91598,-24.838479 19.51802,-25.500783 26.26153,-28.888668 9.22039,-4.632244 19.68937,-4.567867 29.02912,0.178511 5.35843,2.723112 10.833,8.19948 13.43365,13.438016 3.42392,6.896912 4.41348,12.937796 3.25583,19.875112 -0.79092,4.739919 -2.21703,8.675131 -4.38878,12.110686 -0.80566,1.27461 -5.99575,8.280149 -11.53345,15.567871 -5.5377,7.287747 -10.63052,14.383103 -11.31744,15.767413 -3.09642,6.24082 -3.34526,10.30948 -1.19252,19.49988 0.7966,3.40091 1.57021,7.94694 1.71911,10.1022 0.49523,7.16639 -1.03568,10.13251 -14.13052,27.37819 -4.51395,5.94469 -8.20651,10.89821 -8.20581,11.00785 0.002,0.32953 9.0464,7.09244 9.4473,7.06435 0.20408,-0.0138 2.09376,-2.31761 4.19913,-5.1187 7.78923,-10.36243 10.40088,-13.54488 10.94359,-13.33552 0.97722,0.37705 34.72548,26.51722 35.1828,27.25136 0.34234,0.54965 -1.04905,2.62295 -6.28047,9.35877 -3.69611,4.75901 -10.48761,13.58778 -15.09213,19.6196 -10.49119,13.74299 -11.9731,15.41136 -15.0496,16.94257 -2.99047,1.48847 -7.32835,1.93289 -9.85393,1.00961 z M 123.0801,165.09682 c 6.38395,-4.14527 13.02001,-4.17934 21.24073,-0.10933 1.70161,0.84232 3.21301,1.53078 3.35896,1.5298 0.14609,-7.9e-4 -0.82857,-1.22372 -2.16565,-2.7172 -7.76942,-8.67779 -8.64002,-14.99796 -3.50028,-25.4077 1.11251,-2.25363 2.02206,-4.22068 2.02102,-4.37134 -8e-4,-0.15061 -1.47522,1.0881 -3.27598,2.75272 -8.158,7.54131 -15.31161,8.54776 -25.38142,3.57035 -4.07076,-2.01218 -4.06397,-2.04797 -0.44235,2.34144 6.6636,8.07683 7.11977,15.36495 1.61128,25.7458 -0.98607,1.85829 -1.79204,3.48866 -1.79112,3.62304 7.9e-4,0.13451 1.35428,-1.03837 3.00773,-2.6063 1.65336,-1.56785 4.04606,-3.52595 5.31708,-4.35125 z m 114.39007,19.13102 c -1.59587,-1.15715 -7.61812,-5.76746 -13.38279,-10.24517 -5.76468,-4.47774 -10.69863,-8.29742 -10.96432,-8.48812 -0.62731,-0.45031 1.07595,-1.90042 4.00493,-3.40989 1.76703,-0.91054 2.72552,-1.11592 4.55805,-0.9765 2.51703,0.19151 4.4045,1.40335 14.00796,8.99402 5.11247,4.04101 6.1892,5.25753 6.62222,7.48209 0.32198,1.65404 -0.86584,8.07062 -1.5766,8.51659 -0.20236,0.1269 -1.67365,-0.71584 -3.26945,-1.87302 z M 35.155205,127.93733 c -8.806271,-6.56146 -7.96038,-5.47389 -7.180232,-9.23181 0.363571,-1.75135 0.844055,-3.18542 1.067746,-3.18695 0.348271,-0.002 13.676869,9.88504 17.355998,12.87487 l 1.24965,1.0158 -2.895915,1.6454 c -1.592752,0.90494 -2.964935,1.64575 -3.049288,1.64621 -0.08436,4.7e-4 -3.030937,-2.14302 -6.547959,-4.76352 z M 91.348142,71.397616 C 86.707275,67.962354 74.404442,58.556533 70.44955,55.420107 l -2.397999,-1.901732 2.601015,-1.654051 c 3.42317,-2.176888 5.687943,-2.799247 7.868144,-2.162177 1.569663,0.458662 7.564666,4.705251 14.952163,10.591428 4.8014,3.825637 5.435462,6.025716 3.504156,12.158909 -0.374645,1.18976 -0.818133,2.161797 -0.985519,2.160082 -0.167366,-0.0018 -2.256889,-1.448465 -4.643368,-3.21495 z"
       id="path1"
       inkscape:label="path1" /></g></svg>
