<?xml version="1.0" encoding="UTF-8" standalone="no"?><!DOCTYPE svg PUBLIC "-//W3C//DTD SVG 1.1//EN" "http://www.w3.org/Graphics/SVG/1.1/DTD/svg11.dtd"><svg width="100%" height="100%" viewBox="0 0 512 512" version="1.1" xmlns="http://www.w3.org/2000/svg" xmlns:xlink="http://www.w3.org/1999/xlink" xml:space="preserve" xmlns:serif="http://www.serif.com/" style="fill-rule:evenodd;clip-rule:evenodd;stroke-linejoin:round;stroke-miterlimit:2;"><g id="Background"><path d="M473.686,225.315c29.589,29.54 30.942,30.16 29.363,31.821c-15.708,16.533 -219.691,219.987 -238.833,239.078c-2.247,2.242 -7.562,8.615 -9.388,6.906c-6.853,-6.415 -6.554,-6.63 -82.933,-83.014c-20.443,-20.445 -21.031,-20.963 -20.027,-22.326c0.194,-0.264 39.911,-39.888 90.941,-90.971c49.613,-49.665 50.34,-49.745 49.945,-51.402c-0.284,-1.192 -140.98,-140.533 -141.206,-141.92c-0.31,-1.904 0.606,-1.676 59.872,-61.065c13.332,-13.335 26.664,-26.669 39.997,-40.004c1.843,-1.841 3.815,-5.609 6.795,-2.628c71.824,71.841 143.648,143.683 215.472,215.524Z" style="fill:#fefefe;"/><path d="M192.588,263.587c-87.557,87.71 -87.828,88.032 -89.041,87.776c-0.387,-0.082 -0.363,-0.187 -68.127,-67.781c-26.748,-26.681 -27.768,-27.197 -26.562,-28.82c0.092,-0.124 95.74,-95.785 95.908,-95.894c1.62,-1.051 2.029,-0.104 38.774,36.594c18.033,18.01 18.041,17.914 20.393,20.651c3.441,4.005 37.546,36.359 37.332,38.338c-0.084,0.78 -4.28,4.752 -8.676,9.137Z" style="fill:#fefefe;"/></g></svg>