<?xml version="1.0" encoding="UTF-8" standalone="no"?>
<!DOCTYPE svg PUBLIC "-//W3C//DTD SVG 1.1//EN" "http://www.w3.org/Graphics/SVG/1.1/DTD/svg11.dtd">
<svg width="100%" height="100%" viewBox="0 0 1024 1024" version="1.1" xmlns="http://www.w3.org/2000/svg" xmlns:xlink="http://www.w3.org/1999/xlink" xml:space="preserve" xmlns:serif="http://www.serif.com/" style="fill-rule:evenodd;clip-rule:evenodd;stroke-linejoin:round;stroke-miterlimit:2;">
    <g transform="matrix(2.625779,0,0,2.463904,-877.364524,-754.917673)">
        <path d="M525.525,679.877C511.151,680.929 477.018,680.401 456.5,680.505C453.621,680.519 453.638,680.533 453.499,680.504C452.12,680.215 452.288,678.68 452.308,678.494C452.469,677.025 454.368,665.626 454.554,664.508C456.948,650.139 457.118,650.183 460.716,634.552C460.905,633.731 464.025,619.286 464.614,618.592C465.39,617.677 465.606,617.832 481.5,617.827C523.426,617.812 525.972,618.446 545.427,613.25C555.664,610.516 567.104,604.032 572.326,600.251C585.546,590.679 591.017,583.534 595.64,577.604C602.481,568.83 608.263,555.842 609.664,551.558C610.057,550.353 611.922,545.382 613.509,537.502C619.308,508.713 615.627,464.81 580.217,434.836C571.223,427.222 554.314,416.607 531.555,413.168C516.066,410.827 515.978,411.938 398.5,411.517C378.185,411.444 374.571,411.609 373.816,411.043C372.908,410.361 373.211,409.82 373.098,393.498C373.074,389.97 372.803,350.724 373.175,349.396C373.595,347.9 375.732,347.991 376.492,347.978C381.257,347.898 466.659,347.842 474.5,347.836C519.44,347.806 536.155,346.782 566.349,355.988C578.367,359.653 597.313,368.496 610.273,377.811C637.732,397.546 648.306,415.534 654.696,425.378C659.935,433.449 669.85,454.223 673.719,472.45C676.743,486.697 679.428,501.971 677.738,528.514C674.856,573.744 654.209,603.647 649.6,610.568C639.647,625.514 626.648,637.307 624.38,639.365C582.873,677.022 532.467,679.339 525.525,679.877Z" style="fill:white;"/>
    </g>
    <g transform="matrix(2.625779,0,0,2.463904,-877.364524,-754.917673)">
        <path d="M376.499,680.594C374.147,680.499 373.108,680.751 373.119,677.503C373.123,624.168 373.126,570.832 373.13,517.497C373.111,438.368 373.07,438.372 373.103,431.491C373.111,429.752 372.878,429.333 374.543,428.801C375.27,428.568 389.159,430.402 394.492,431.543C411.783,435.243 418.388,440.329 419.66,441.28C436.698,454.022 436.041,472.563 436.032,483.501C436.013,519.834 435.994,556.167 435.975,592.5C435.929,616.834 435.883,641.167 435.837,665.501C435.789,679.455 436.148,680.166 434.513,680.552C434.46,680.564 392.585,680.56 376.499,680.594Z" style="fill:white;"/>
    </g>
</svg>
