<svg xmlns="http://www.w3.org/2000/svg" viewBox="0 0 800 600" width="100%" height="100%">
  <defs>
    <!-- Dark grease radial gradients -->
    <radialGradient id="smudge1_grease" cx="50%" cy="50%" r="50%">
      <stop offset="0%" stop-color="#332c25" stop-opacity="0.32" />
      <stop offset="60%" stop-color="#332c25" stop-opacity="0.24" />
      <stop offset="100%" stop-color="#332c25" stop-opacity="0" />
    </radialGradient>
    <radialGradient id="smudge2_grease" cx="50%" cy="50%" r="50%">
      <stop offset="0%" stop-color="#332c25" stop-opacity="0.28" />
      <stop offset="50%" stop-color="#332c25" stop-opacity="0.13" />
      <stop offset="100%" stop-color="#332c25" stop-opacity="0" />
    </radialGradient>
    <radialGradient id="smudge3_grease" cx="50%" cy="50%" r="50%">
      <stop offset="0%" stop-color="#332c25" stop-opacity="0.26" />
      <stop offset="70%" stop-color="#332c25" stop-opacity="0.11" />
      <stop offset="100%" stop-color="#332c25" stop-opacity="0" />
    </radialGradient>

    <!-- White highlight radial gradients -->
    <radialGradient id="smudge1_highlight" cx="50%" cy="50%" r="50%">
      <stop offset="0%" stop-color="white" stop-opacity="0.48" />
      <stop offset="60%" stop-color="white" stop-opacity="0.20" />
      <stop offset="100%" stop-color="white" stop-opacity="0" />
    </radialGradient>
    <radialGradient id="smudge2_highlight" cx="50%" cy="50%" r="50%">
      <stop offset="0%" stop-color="white" stop-opacity="0.42" />
      <stop offset="50%" stop-color="white" stop-opacity="0.24" />
      <stop offset="100%" stop-color="white" stop-opacity="0" />
    </radialGradient>
    <radialGradient id="smudge3_highlight" cx="50%" cy="50%" r="50%">
      <stop offset="0%" stop-color="white" stop-opacity="0.38" />
      <stop offset="70%" stop-color="white" stop-opacity="0.24" />
      <stop offset="100%" stop-color="white" stop-opacity="0" />
    </radialGradient>

    <!-- Linear gradients for swipe marks -->
    <linearGradient id="swipeGrease" x1="0%" y1="0%" x2="100%" y2="0%">
      <stop offset="0%" stop-color="#332c25" stop-opacity="0" />
      <stop offset="20%" stop-color="#332c25" stop-opacity="0.12" />
      <stop offset="50%" stop-color="#332c25" stop-opacity="0.26" />
      <stop offset="80%" stop-color="#332c25" stop-opacity="0.12" />
      <stop offset="100%" stop-color="#332c25" stop-opacity="0" />
    </linearGradient>
    <linearGradient id="swipeHighlight" x1="0%" y1="0%" x2="100%" y2="0%">
      <stop offset="0%" stop-color="white" stop-opacity="0" />
      <stop offset="20%" stop-color="white" stop-opacity="0.24" />
      <stop offset="50%" stop-color="white" stop-opacity="0.48" />
      <stop offset="80%" stop-color="white" stop-opacity="0.24" />
      <stop offset="100%" stop-color="white" stop-opacity="0" />
    </linearGradient>
  </defs>

  <!-- Oily Smudges -->
  <!-- Swipe mark at the bottom -->
  <path d="M 72.6 472.6 Q 296.6 427.6 664.6 517.6" fill="none" stroke="url(#swipeHighlight)" stroke-width="70" stroke-linecap="round" />
  <path d="M 72 472 Q 296 427 664 517" fill="none" stroke="url(#swipeGrease)" stroke-width="69" stroke-linecap="round" />
  
  <!-- Finger smudge 1 -->
  <ellipse cx="208.6" cy="180.6" rx="72" ry="97.5" transform="rotate(10 208.6 180.6)" fill="url(#smudge1_highlight)" />
  <ellipse cx="208" cy="180" rx="72" ry="97.5" transform="rotate(10 208 180)" fill="url(#smudge1_grease)" />
  
  <!-- Large corner smear -->
  <ellipse cx="672.6" cy="150.6" rx="144" ry="127.5" transform="rotate(-10 672.6 150.6)" fill="url(#smudge2_highlight)" />
  <ellipse cx="672" cy="150" rx="144" ry="127.5" transform="rotate(-10 672 150)" fill="url(#smudge2_grease)" />

  <!-- Center palm/hand drag -->
  <ellipse cx="464.6" cy="315.6" rx="104" ry="112.5" fill="url(#smudge3_highlight)" />
  <ellipse cx="464" cy="315" rx="104" ry="112.5" fill="url(#smudge3_grease)" />

  <!-- Fingerprint 1 (Index Finger) -->
  <g transform="translate(224, 165) rotate(12) scale(1.1)">
    <!-- White refracting highlight layer (offset by 0.6px) -->
    <g stroke="white" stroke-width="0.38" fill="none" stroke-linecap="round" opacity="0.40" transform="translate(0.8, 0.8)">
      <ellipse cx="0" cy="0" rx="1.5" ry="2.2" />
      <ellipse cx="-0.1" cy="0.2" rx="3.0" ry="4.4" />
      <ellipse cx="-0.3" cy="0.4" rx="4.5" ry="6.6" stroke-dasharray="50 1.2" />
      <ellipse cx="-0.5" cy="0.6" rx="6.0" ry="8.8" />
      <ellipse cx="-0.7" cy="0.8" rx="7.5" ry="11.0" stroke-dasharray="70 1.2 50 1.2" />
      <ellipse cx="-0.9" cy="1.0" rx="9.0" ry="13.2" />
      <ellipse cx="-1.1" cy="1.2" rx="10.5" ry="15.4" stroke-dasharray="90 1.5" />
      <ellipse cx="-1.3" cy="1.4" rx="12.0" ry="17.6" />
      <ellipse cx="-1.5" cy="1.6" rx="13.5" ry="19.8" stroke-dasharray="110 1.5 80 1.5" />
      <ellipse cx="-1.7" cy="1.8" rx="15.0" ry="22.0" />
      <ellipse cx="-1.9" cy="2.0" rx="16.5" ry="24.2" stroke-dasharray="130 1.5" />
      <ellipse cx="-2.1" cy="2.2" rx="18.0" ry="26.4" />
      <ellipse cx="-2.3" cy="2.4" rx="19.5" ry="28.6" stroke-dasharray="150 1.5 100 1.5" />
      <ellipse cx="-2.5" cy="-2.6" rx="21.0" ry="30.8" />
      <ellipse cx="-2.7" cy="2.8" rx="22.5" ry="33.0" />
      <ellipse cx="-2.9" cy="3.0" rx="24.0" ry="35.2" stroke-dasharray="170 1.5" />
      <ellipse cx="-3.1" cy="3.2" rx="25.5" ry="37.4" />
      <ellipse cx="-3.3" cy="3.4" rx="27.0" ry="39.6" />
      <ellipse cx="-3.5" cy="3.6" rx="28.5" ry="41.8" stroke-dasharray="190 1.5" />
      <ellipse cx="-3.7" cy="3.8" rx="30.0" ry="44.0" />
    </g>
    <!-- Dark grease layer -->
    <g stroke="#332c25" stroke-width="0.38" fill="none" stroke-linecap="round" opacity="0.30">
      <ellipse cx="0" cy="0" rx="1.5" ry="2.2" />
      <ellipse cx="-0.1" cy="0.2" rx="3.0" ry="4.4" />
      <ellipse cx="-0.3" cy="0.4" rx="4.5" ry="6.6" stroke-dasharray="50 1.2" />
      <ellipse cx="-0.5" cy="0.6" rx="6.0" ry="8.8" />
      <ellipse cx="-0.7" cy="0.8" rx="7.5" ry="11.0" stroke-dasharray="70 1.2 50 1.2" />
      <ellipse cx="-0.9" cy="1.0" rx="9.0" ry="13.2" />
      <ellipse cx="-1.1" cy="1.2" rx="10.5" ry="15.4" stroke-dasharray="90 1.5" />
      <ellipse cx="-1.3" cy="1.4" rx="12.0" ry="17.6" />
      <ellipse cx="-1.5" cy="1.6" rx="13.5" ry="19.8" stroke-dasharray="110 1.5 80 1.5" />
      <ellipse cx="-1.7" cy="1.8" rx="15.0" ry="22.0" />
      <ellipse cx="-1.9" cy="2.0" rx="16.5" ry="24.2" stroke-dasharray="130 1.5" />
      <ellipse cx="-2.1" cy="2.2" rx="18.0" ry="26.4" />
      <ellipse cx="-2.3" cy="2.4" rx="19.5" ry="28.6" stroke-dasharray="150 1.5 100 1.5" />
      <ellipse cx="-2.5" cy="2.6" rx="21.0" ry="30.8" />
      <ellipse cx="-2.7" cy="2.8" rx="22.5" ry="33.0" />
      <ellipse cx="-2.9" cy="3.0" rx="24.0" ry="35.2" stroke-dasharray="170 1.5" />
      <ellipse cx="-3.1" cy="3.2" rx="25.5" ry="37.4" />
      <ellipse cx="-3.3" cy="3.4" rx="27.0" ry="39.6" />
      <ellipse cx="-3.5" cy="3.6" rx="28.5" ry="41.8" stroke-dasharray="190 1.5" />
      <ellipse cx="-3.7" cy="3.8" rx="30.0" ry="44.0" />
    </g>
  </g>

  <!-- Fingerprint 2 (Middle Finger) -->
  <g transform="translate(576, 375) rotate(-30) scale(1.2)">
    <!-- White refracting highlight layer (offset by 0.6px) -->
    <g stroke="white" stroke-width="0.38" fill="none" stroke-linecap="round" opacity="0.40" transform="translate(0.8, 0.8)">
      <ellipse cx="0" cy="0" rx="1.5" ry="2.2" />
      <ellipse cx="0.2" cy="-0.4" rx="3.0" ry="4.4" />
      <ellipse cx="0.4" cy="-0.8" rx="4.5" ry="6.6" stroke-dasharray="50 1.2" />
      <ellipse cx="0.6" cy="-1.2" rx="6.0" ry="8.8" />
      <ellipse cx="0.8" cy="-1.6" rx="7.5" ry="11.0" stroke-dasharray="70 1.2 50 1.2" />
      <ellipse cx="1.0" cy="-2.0" rx="9.0" ry="13.2" />
      <ellipse cx="1.2" cy="-2.4" rx="10.5" ry="15.4" stroke-dasharray="90 1.5" />
      <ellipse cx="1.4" cy="-2.8" rx="12.0" ry="17.6" />
      <ellipse cx="1.6" cy="-3.2" rx="13.5" ry="19.8" stroke-dasharray="110 1.5 80 1.5" />
      <ellipse cx="1.8" cy="-3.6" rx="15.0" ry="22.0" />
      <ellipse cx="2.0" cy="-4.0" rx="16.5" ry="24.2" stroke-dasharray="130 1.5" />
      <ellipse cx="2.2" cy="-4.4" rx="18.0" ry="26.4" />
      <ellipse cx="2.4" cy="-4.8" rx="19.5" ry="28.6" stroke-dasharray="150 1.5 100 1.5" />
      <ellipse cx="2.6" cy="-5.2" rx="21.0" ry="30.8" />
      <ellipse cx="2.8" cy="-5.6" rx="22.5" ry="33.0" />
      <ellipse cx="3.0" cy="-6.0" rx="24.0" ry="35.2" stroke-dasharray="170 1.5" />
      <ellipse cx="3.2" cy="-6.4" rx="25.5" ry="37.4" />
      <ellipse cx="3.4" cy="-6.8" rx="27.0" ry="39.6" />
      <ellipse cx="3.6" cy="-7.2" rx="28.5" ry="41.8" stroke-dasharray="190 1.5" />
      <ellipse cx="3.8" cy="-7.6" rx="30.0" ry="44.0" />
    </g>
    <!-- Dark grease layer -->
    <g stroke="#332c25" stroke-width="0.38" fill="none" stroke-linecap="round" opacity="0.30">
      <ellipse cx="0" cy="0" rx="1.5" ry="2.2" />
      <ellipse cx="0.2" cy="-0.4" rx="3.0" ry="4.4" />
      <ellipse cx="0.4" cy="-0.8" rx="4.5" ry="6.6" stroke-dasharray="50 1.2" />
      <ellipse cx="0.6" cy="-1.2" rx="6.0" ry="8.8" />
      <ellipse cx="0.8" cy="-1.6" rx="7.5" ry="11.0" stroke-dasharray="70 1.2 50 1.2" />
      <ellipse cx="1.0" cy="-2.0" rx="9.0" ry="13.2" />
      <ellipse cx="1.2" cy="-2.4" rx="10.5" ry="15.4" stroke-dasharray="90 1.5" />
      <ellipse cx="1.4" cy="-2.8" rx="12.0" ry="17.6" />
      <ellipse cx="1.6" cy="-3.2" rx="13.5" ry="19.8" stroke-dasharray="110 1.5 80 1.5" />
      <ellipse cx="1.8" cy="-3.6" rx="15.0" ry="22.0" />
      <ellipse cx="2.0" cy="-4.0" rx="16.5" ry="24.2" stroke-dasharray="130 1.5" />
      <ellipse cx="2.2" cy="-4.4" rx="18.0" ry="26.4" />
      <ellipse cx="2.4" cy="-4.8" rx="19.5" ry="28.6" stroke-dasharray="150 1.5 100 1.5" />
      <ellipse cx="2.6" cy="-5.2" rx="21.0" ry="30.8" />
      <ellipse cx="2.8" cy="-5.6" rx="22.5" ry="33.0" />
      <ellipse cx="3.0" cy="-6.0" rx="24.0" ry="35.2" stroke-dasharray="170 1.5" />
      <ellipse cx="3.2" cy="-6.4" rx="25.5" ry="37.4" />
      <ellipse cx="3.4" cy="-6.8" rx="27.0" ry="39.6" />
      <ellipse cx="3.6" cy="-7.2" rx="28.5" ry="41.8" stroke-dasharray="190 1.5" />
      <ellipse cx="3.8" cy="-7.6" rx="30.0" ry="44.0" />
    </g>
  </g>

  <!-- Fingerprint 3 (Thumb) -->
  <g transform="translate(416, 270) rotate(45) scale(1.0)">
    <!-- White refracting highlight layer (offset by 0.6px) -->
    <g stroke="white" stroke-width="0.38" fill="none" stroke-linecap="round" opacity="0.40" transform="translate(0.8, 0.8)">
      <ellipse cx="0" cy="0" rx="1.5" ry="2.2" />
      <ellipse cx="-0.2" cy="-0.3" rx="3.0" ry="4.4" />
      <ellipse cx="0.3" cy="0.4" rx="4.5" ry="6.6" stroke-dasharray="50 1.2" />
      <ellipse cx="-0.4" cy="-0.5" rx="6.0" ry="8.8" />
      <ellipse cx="0.5" cy="0.6" rx="7.5" ry="11.0" stroke-dasharray="70 1.2 50 1.2" />
      <ellipse cx="-0.6" cy="-0.7" rx="9.0" ry="13.2" />
      <ellipse cx="0.7" cy="0.8" rx="10.5" ry="15.4" stroke-dasharray="90 1.5" />
      <ellipse cx="-0.8" cy="-0.9" rx="12.0" ry="17.6" />
      <ellipse cx="0.9" cy="1.0" rx="13.5" ry="19.8" stroke-dasharray="110 1.5 80 1.5" />
      <ellipse cx="-1.0" cy="-1.1" rx="15.0" ry="22.0" />
      <ellipse cx="1.1" cy="1.2" rx="16.5" ry="24.2" stroke-dasharray="130 1.5" />
      <ellipse cx="-1.2" cy="-1.3" rx="18.0" ry="26.4" />
      <ellipse cx="1.3" cy="1.4" rx="19.5" ry="28.6" stroke-dasharray="150 1.5 100 1.5" />
      <ellipse cx="-1.4" cy="-1.5" rx="21.0" ry="30.8" />
      <ellipse cx="1.5" cy="1.6" rx="22.5" ry="33.0" />
      <ellipse cx="-1.6" cy="-1.7" rx="24.0" ry="35.2" stroke-dasharray="170 1.5" />
      <ellipse cx="1.7" cy="1.8" rx="25.5" ry="37.4" />
      <ellipse cx="-1.8" cy="-1.9" rx="27.0" ry="39.6" />
      <ellipse cx="1.9" cy="2.0" rx="28.5" ry="41.8" stroke-dasharray="190 1.5" />
      <ellipse cx="-2.0" cy="-2.1" rx="30.0" ry="44.0" />
    </g>
    <!-- Dark grease layer -->
    <g stroke="#332c25" stroke-width="0.38" fill="none" stroke-linecap="round" opacity="0.30">
      <ellipse cx="0" cy="0" rx="1.5" ry="2.2" />
      <ellipse cx="-0.2" cy="-0.3" rx="3.0" ry="4.4" />
      <ellipse cx="0.3" cy="0.4" rx="4.5" ry="6.6" stroke-dasharray="50 1.2" />
      <ellipse cx="-0.4" cy="-0.5" rx="6.0" ry="8.8" />
      <ellipse cx="0.5" cy="0.6" rx="7.5" ry="11.0" stroke-dasharray="70 1.2 50 1.2" />
      <ellipse cx="-0.6" cy="-0.7" rx="9.0" ry="13.2" />
      <ellipse cx="0.7" cy="0.8" rx="10.5" ry="15.4" stroke-dasharray="90 1.5" />
      <ellipse cx="-0.8" cy="-0.9" rx="12.0" ry="17.6" />
      <ellipse cx="0.9" cy="1.0" rx="13.5" ry="19.8" stroke-dasharray="110 1.5 80 1.5" />
      <ellipse cx="-1.0" cy="-1.1" rx="15.0" ry="22.0" />
      <ellipse cx="1.1" cy="1.2" rx="16.5" ry="24.2" stroke-dasharray="130 1.5" />
      <ellipse cx="-1.2" cy="-1.3" rx="18.0" ry="26.4" />
      <ellipse cx="1.3" cy="1.4" rx="19.5" ry="28.6" stroke-dasharray="150 1.5 100 1.5" />
      <ellipse cx="-1.4" cy="-1.5" rx="21.0" ry="30.8" />
      <ellipse cx="1.5" cy="1.6" rx="22.5" ry="33.0" />
      <ellipse cx="-1.6" cy="-1.7" rx="24.0" ry="35.2" stroke-dasharray="170 1.5" />
      <ellipse cx="1.7" cy="1.8" rx="25.5" ry="37.4" />
      <ellipse cx="-1.8" cy="-1.9" rx="27.0" ry="39.6" />
      <ellipse cx="1.9" cy="2.0" rx="28.5" ry="41.8" stroke-dasharray="190 1.5" />
      <ellipse cx="-2.0" cy="-2.1" rx="30.0" ry="44.0" />
    </g>
  </g>

  <!-- 3D Refracting Dust Speckles -->
  <g fill="white" opacity="0.44" transform="translate(0.8, 0.8)">
    <circle cx="96.6" cy="105.6" r="0.7" />
    <circle cx="320.6" cy="82.5" r="1.1" />
    <circle cx="528.6" cy="240.6" r="0.6" />
    <circle cx="176.6" cy="390.6" r="1.2" />
    <circle cx="608.6" cy="435.6" r="0.8" />
    <circle cx="224.6" cy="450.6" r="1.0" />
  </g>
  <g fill="#332c25" opacity="0.28">
    <circle cx="96" cy="105" r="0.7" />
    <circle cx="320" cy="82.5" r="1.1" />
    <circle cx="528" cy="240" r="0.6" />
    <circle cx="176" cy="390" r="1.2" />
    <circle cx="608" cy="435" r="0.8" />
    <circle cx="224" cy="450" r="1.0" />
  </g>
</svg>
