<svg xmlns="http://www.w3.org/2000/svg" viewBox="0 0 500 400" width="100%" height="100%">
  <defs>
    <!-- Dark grease radial gradients -->
    <radialGradient id="smudge1_grease" cx="50%" cy="50%" r="50%">
      <stop offset="0%" stop-color="#332c25" stop-opacity="0.32" />
      <stop offset="60%" stop-color="#332c25" stop-opacity="0.24" />
      <stop offset="100%" stop-color="#332c25" stop-opacity="0" />
    </radialGradient>
    <radialGradient id="smudge2_grease" cx="50%" cy="50%" r="50%">
      <stop offset="0%" stop-color="#332c25" stop-opacity="0.28" />
      <stop offset="50%" stop-color="#332c25" stop-opacity="0.13" />
      <stop offset="100%" stop-color="#332c25" stop-opacity="0" />
    </radialGradient>
    <radialGradient id="smudge3_grease" cx="50%" cy="50%" r="50%">
      <stop offset="0%" stop-color="#332c25" stop-opacity="0.26" />
      <stop offset="70%" stop-color="#332c25" stop-opacity="0.11" />
      <stop offset="100%" stop-color="#332c25" stop-opacity="0" />
    </radialGradient>

    <!-- White highlight radial gradients -->
    <radialGradient id="smudge1_highlight" cx="50%" cy="50%" r="50%">
      <stop offset="0%" stop-color="white" stop-opacity="0.48" />
      <stop offset="60%" stop-color="white" stop-opacity="0.20" />
      <stop offset="100%" stop-color="white" stop-opacity="0" />
    </radialGradient>
    <radialGradient id="smudge2_highlight" cx="50%" cy="50%" r="50%">
      <stop offset="0%" stop-color="white" stop-opacity="0.42" />
      <stop offset="50%" stop-color="white" stop-opacity="0.24" />
      <stop offset="100%" stop-color="white" stop-opacity="0" />
    </radialGradient>
    <radialGradient id="smudge3_highlight" cx="50%" cy="50%" r="50%">
      <stop offset="0%" stop-color="white" stop-opacity="0.38" />
      <stop offset="70%" stop-color="white" stop-opacity="0.24" />
      <stop offset="100%" stop-color="white" stop-opacity="0" />
    </radialGradient>

    <!-- Linear gradients for swipe marks -->
    <linearGradient id="swipeGrease" x1="0%" y1="0%" x2="100%" y2="0%">
      <stop offset="0%" stop-color="#332c25" stop-opacity="0" />
      <stop offset="20%" stop-color="#332c25" stop-opacity="0.12" />
      <stop offset="50%" stop-color="#332c25" stop-opacity="0.26" />
      <stop offset="80%" stop-color="#332c25" stop-opacity="0.12" />
      <stop offset="100%" stop-color="#332c25" stop-opacity="0" />
    </linearGradient>
    <linearGradient id="swipeHighlight" x1="0%" y1="0%" x2="100%" y2="0%">
      <stop offset="0%" stop-color="white" stop-opacity="0" />
      <stop offset="20%" stop-color="white" stop-opacity="0.24" />
      <stop offset="50%" stop-color="white" stop-opacity="0.48" />
      <stop offset="80%" stop-color="white" stop-opacity="0.24" />
      <stop offset="100%" stop-color="white" stop-opacity="0" />
    </linearGradient>
  </defs>

  <!-- Oily Smudges -->
  <!-- Swipe mark at the bottom -->
  <path d="M 45.6 315.6 Q 185.6 285.6 415.6 345.6" fill="none" stroke="url(#swipeHighlight)" stroke-width="45" stroke-linecap="round" />
  <path d="M 45 315 Q 185 285 415 345" fill="none" stroke="url(#swipeGrease)" stroke-width="44" stroke-linecap="round" />
  
  <!-- Finger smudge 1 -->
  <ellipse cx="130.6" cy="120.6" rx="45" ry="65" transform="rotate(10 130.6 120.6)" fill="url(#smudge1_highlight)" />
  <ellipse cx="130" cy="120" rx="45" ry="65" transform="rotate(10 130 120)" fill="url(#smudge1_grease)" />
  
  <!-- Large corner smear -->
  <ellipse cx="420.6" cy="100.6" rx="90" ry="85" transform="rotate(-10 420.6 100.6)" fill="url(#smudge2_highlight)" />
  <ellipse cx="420" cy="100" rx="90" ry="85" transform="rotate(-10 420 100)" fill="url(#smudge2_grease)" />

  <!-- Center palm/hand drag -->
  <ellipse cx="290.6" cy="210.6" rx="65" ry="75" fill="url(#smudge3_highlight)" />
  <ellipse cx="290" cy="210" rx="65" ry="75" fill="url(#smudge3_grease)" />

  <!-- Fingerprint 1 (Index Finger) -->
  <g transform="translate(140, 110) rotate(12) scale(1.1)">
    <!-- White refracting highlight layer (offset by 0.6px) -->
    <g stroke="white" stroke-width="0.45" fill="none" stroke-linecap="round" opacity="0.42" transform="translate(0.8, 0.8)">
      <ellipse cx="0" cy="0" rx="1.5" ry="2.2" />
      <ellipse cx="-0.1" cy="0.2" rx="3.0" ry="4.4" />
      <ellipse cx="-0.3" cy="0.4" rx="4.5" ry="6.6" stroke-dasharray="40 1.2" />
      <ellipse cx="-0.5" cy="0.6" rx="6.0" ry="8.8" />
      <ellipse cx="-0.7" cy="0.8" rx="7.5" ry="11.0" stroke-dasharray="60 1.2 40 1.2" />
      <ellipse cx="-0.9" cy="1.0" rx="9.0" ry="13.2" />
      <ellipse cx="-1.1" cy="1.2" rx="10.5" ry="15.4" stroke-dasharray="80 1.5" />
      <ellipse cx="-1.3" cy="1.4" rx="12.0" ry="17.6" />
      <ellipse cx="-1.5" cy="1.6" rx="13.5" ry="19.8" stroke-dasharray="100 1.5 70 1.5" />
      <ellipse cx="-1.7" cy="1.8" rx="15.0" ry="22.0" />
      <ellipse cx="-1.9" cy="2.0" rx="16.5" ry="24.2" stroke-dasharray="120 1.5" />
      <ellipse cx="-2.1" cy="2.2" rx="18.0" ry="26.4" />
    </g>
    <!-- Dark grease layer -->
    <g stroke="#332c25" stroke-width="0.45" fill="none" stroke-linecap="round" opacity="0.32">
      <ellipse cx="0" cy="0" rx="1.5" ry="2.2" />
      <ellipse cx="-0.1" cy="0.2" rx="3.0" ry="4.4" />
      <ellipse cx="-0.3" cy="0.4" rx="4.5" ry="6.6" stroke-dasharray="40 1.2" />
      <ellipse cx="-0.5" cy="0.6" rx="6.0" ry="8.8" />
      <ellipse cx="-0.7" cy="0.8" rx="7.5" ry="11.0" stroke-dasharray="60 1.2 40 1.2" />
      <ellipse cx="-0.9" cy="1.0" rx="9.0" ry="13.2" />
      <ellipse cx="-1.1" cy="1.2" rx="10.5" ry="15.4" stroke-dasharray="80 1.5" />
      <ellipse cx="-1.3" cy="1.4" rx="12.0" ry="17.6" />
      <ellipse cx="-1.5" cy="1.6" rx="13.5" ry="19.8" stroke-dasharray="100 1.5 70 1.5" />
      <ellipse cx="-1.7" cy="1.8" rx="15.0" ry="22.0" />
      <ellipse cx="-1.9" cy="2.0" rx="16.5" ry="24.2" stroke-dasharray="120 1.5" />
      <ellipse cx="-2.1" cy="2.2" rx="18.0" ry="26.4" />
    </g>
  </g>

  <!-- Fingerprint 2 (Middle Finger) -->
  <g transform="translate(360, 250) rotate(-30) scale(1.2)">
    <!-- White refracting highlight layer (offset by 0.6px) -->
    <g stroke="white" stroke-width="0.45" fill="none" stroke-linecap="round" opacity="0.42" transform="translate(0.8, 0.8)">
      <ellipse cx="0" cy="0" rx="1.5" ry="2.2" />
      <ellipse cx="0.2" cy="-0.4" rx="3.0" ry="4.4" />
      <ellipse cx="0.4" cy="-0.8" rx="4.5" ry="6.6" stroke-dasharray="45 1.2" />
      <ellipse cx="0.6" cy="-1.2" rx="6.0" ry="8.8" />
      <ellipse cx="0.8" cy="-1.6" rx="7.5" ry="11.0" stroke-dasharray="65 1.2 35 1.2" />
      <ellipse cx="1.0" cy="-2.0" rx="9.0" ry="13.2" />
      <ellipse cx="1.2" cy="-2.4" rx="10.5" ry="15.4" stroke-dasharray="85 1.5" />
      <ellipse cx="1.4" cy="-2.8" rx="12.0" ry="17.6" />
      <ellipse cx="1.6" cy="-3.2" rx="13.5" ry="19.8" stroke-dasharray="105 1.5 65 1.5" />
      <ellipse cx="1.8" cy="-3.6" rx="15.0" ry="22.0" />
      <ellipse cx="2.0" cy="-4.0" rx="16.5" ry="24.2" stroke-dasharray="125 1.5" />
      <ellipse cx="2.2" cy="-4.4" rx="18.0" ry="26.4" />
    </g>
    <!-- Dark grease layer -->
    <g stroke="#332c25" stroke-width="0.45" fill="none" stroke-linecap="round" opacity="0.32">
      <ellipse cx="0" cy="0" rx="1.5" ry="2.2" />
      <ellipse cx="0.2" cy="-0.4" rx="3.0" ry="4.4" />
      <ellipse cx="0.4" cy="-0.8" rx="4.5" ry="6.6" stroke-dasharray="45 1.2" />
      <ellipse cx="0.6" cy="-1.2" rx="6.0" ry="8.8" />
      <ellipse cx="0.8" cy="-1.6" rx="7.5" ry="11.0" stroke-dasharray="65 1.2 35 1.2" />
      <ellipse cx="1.0" cy="-2.0" rx="9.0" ry="13.2" />
      <ellipse cx="1.2" cy="-2.4" rx="10.5" ry="15.4" stroke-dasharray="85 1.5" />
      <ellipse cx="1.4" cy="-2.8" rx="12.0" ry="17.6" />
      <ellipse cx="1.6" cy="-3.2" rx="13.5" ry="19.8" stroke-dasharray="105 1.5 65 1.5" />
      <ellipse cx="1.8" cy="-3.6" rx="15.0" ry="22.0" />
      <ellipse cx="2.0" cy="-4.0" rx="16.5" ry="24.2" stroke-dasharray="125 1.5" />
      <ellipse cx="2.2" cy="-4.4" rx="18.0" ry="26.4" />
    </g>
  </g>

  <!-- Fingerprint 3 (Thumb) -->
  <g transform="translate(260, 180) rotate(45) scale(1.0)">
    <!-- White refracting highlight layer (offset by 0.6px) -->
    <g stroke="white" stroke-width="0.45" fill="none" stroke-linecap="round" opacity="0.42" transform="translate(0.8, 0.8)">
      <ellipse cx="0" cy="0" rx="1.5" ry="2.2" />
      <ellipse cx="-0.2" cy="-0.3" rx="3.0" ry="4.4" />
      <ellipse cx="0.3" cy="0.4" rx="4.5" ry="6.6" stroke-dasharray="50 1.2" />
      <ellipse cx="-0.4" cy="-0.5" rx="6.0" ry="8.8" />
      <ellipse cx="0.5" cy="0.6" rx="7.5" ry="11.0" stroke-dasharray="70 1.2 50 1.2" />
      <ellipse cx="-0.6" cy="-0.7" rx="9.0" ry="13.2" />
      <ellipse cx="0.7" cy="0.8" rx="10.5" ry="15.4" stroke-dasharray="90 1.5" />
      <ellipse cx="-0.8" cy="-0.9" rx="12.0" ry="17.6" />
      <ellipse cx="0.9" cy="1.0" rx="13.5" ry="19.8" stroke-dasharray="110 1.5 80 1.5" />
      <ellipse cx="-1.0" cy="-1.1" rx="15.0" ry="22.0" />
      <ellipse cx="1.1" cy="1.2" rx="16.5" ry="24.2" stroke-dasharray="130 1.5" />
      <ellipse cx="-1.2" cy="-1.3" rx="18.0" ry="26.4" />
    </g>
    <!-- Dark grease layer -->
    <g stroke="#332c25" stroke-width="0.45" fill="none" stroke-linecap="round" opacity="0.32">
      <ellipse cx="0" cy="0" rx="1.5" ry="2.2" />
      <ellipse cx="-0.2" cy="-0.3" rx="3.0" ry="4.4" />
      <ellipse cx="0.3" cy="0.4" rx="4.5" ry="6.6" stroke-dasharray="50 1.2" />
      <ellipse cx="-0.4" cy="-0.5" rx="6.0" ry="8.8" />
      <ellipse cx="0.5" cy="0.6" rx="7.5" ry="11.0" stroke-dasharray="70 1.2 50 1.2" />
      <ellipse cx="-0.6" cy="-0.7" rx="9.0" ry="13.2" />
      <ellipse cx="0.7" cy="0.8" rx="10.5" ry="15.4" stroke-dasharray="90 1.5" />
      <ellipse cx="-0.8" cy="-0.9" rx="12.0" ry="17.6" />
      <ellipse cx="0.9" cy="1.0" rx="13.5" ry="19.8" stroke-dasharray="110 1.5 80 1.5" />
      <ellipse cx="-1.0" cy="-1.1" rx="15.0" ry="22.0" />
      <ellipse cx="1.1" cy="1.2" rx="16.5" ry="24.2" stroke-dasharray="130 1.5" />
      <ellipse cx="-1.2" cy="-1.3" rx="18.0" ry="26.4" />
    </g>
  </g>

  <!-- 3D Refracting Dust Speckles -->
  <g fill="white" opacity="0.44" transform="translate(0.8, 0.8)">
    <circle cx="60.6" cy="70.6" r="0.7" />
    <circle cx="200.6" cy="55.6" r="1.1" />
    <circle cx="330.6" cy="160.6" r="0.6" />
    <circle cx="110.6" cy="260.6" r="1.2" />
    <circle cx="380.6" cy="290.6" r="0.8" />
    <circle cx="140.6" cy="300.6" r="1.0" />
  </g>
  <g fill="#332c25" opacity="0.28">
    <circle cx="60" cy="70" r="0.7" />
    <circle cx="200" cy="55" r="1.1" />
    <circle cx="330" cy="160" r="0.6" />
    <circle cx="110" cy="260" r="1.2" />
    <circle cx="380" cy="290" r="0.8" />
    <circle cx="140" cy="300" r="1.0" />
  </g>
</svg>
