<svg xmlns="http://www.w3.org/2000/svg" viewBox="0 0 24 24" fill="#000000"><path d="M0 0h24v24H0V0z" fill="none"/><path d="M2.01 16H17v3H2.01v-3zm16.49 0H22v3h-3.5v-3zM18 14.5c0-1.25.56-2.38 1.43-3.08.31-.25.57-.59.57-1.12 0-1.11-.89-2-2-2-1.24 0-2.37.55-3.07 1.42-.25.31-.59.58-1.13.58-1.1 0-2-.89-2-2 0-.28.11-.53.29-.71L10.68 6.2c-.42-.42-1.21-.08-1.21.52v2.78h-2V6.5c0-.83.67-1.5 1.5-1.5h1.5v-2H9C7.35 3 6 4.35 6 6v3.5H2c-1.1 0-2 .9-2 2v6h2v-6h4v3.5c0 1.65 1.35 3 3 3h1.5v2h2v-2H14c1.1 0 2-.9 2-2 0-1.24-.55-2.37-1.42-3.07-.31-.25-.58-.59-.58-1.13 0-1.11.89-2 2-2 .28 0 .53.11.71.29l1.41-1.41c.42.42.08 1.21-.52 1.21h-2.78c-.83 0-1.5.67-1.5 1.5s.67 1.5 1.5 1.5v2c-1.65 0-3-1.35-3-3s1.35-3 3-3c1.24 0 2.37-.55 3.07-1.42.25-.31.59-.58 1.13-.58 1.11 0 2 .89 2 2 0 .28-.11.53-.29.71l-1.41 1.41z"/></svg>
